<?xml version="1.0" encoding="UTF-8" standalone="no"?>
<!-- Created with Inkscape (http://www.inkscape.org/) -->

<svg
   xmlns:dc="http://purl.org/dc/elements/1.1/"
   xmlns:cc="http://creativecommons.org/ns#"
   xmlns:rdf="http://www.w3.org/1999/02/22-rdf-syntax-ns#"
   xmlns:svg="http://www.w3.org/2000/svg"
   xmlns="http://www.w3.org/2000/svg"
   xmlns:sodipodi="http://sodipodi.sourceforge.net/DTD/sodipodi-0.dtd"
   xmlns:inkscape="http://www.inkscape.org/namespaces/inkscape"
   width="138.48956mm"
   height="147.42442mm"
   viewBox="0 0 138.48957 147.42443"
   version="1.1"
   id="svg8"
   inkscape:version="0.92.3 (2405546, 2018-03-11)"
   sodipodi:docname="simple_mosque.svg">
  <defs
     id="defs2" />
  <sodipodi:namedview
     id="base"
     pagecolor="#ffffff"
     bordercolor="#666666"
     borderopacity="1.0"
     inkscape:pageopacity="0.0"
     inkscape:pageshadow="2"
     inkscape:zoom="1.4"
     inkscape:cx="249.80785"
     inkscape:cy="290.44903"
     inkscape:document-units="mm"
     inkscape:current-layer="layer1"
     showgrid="false"
     inkscape:window-width="2560"
     inkscape:window-height="1391"
     inkscape:window-x="0"
     inkscape:window-y="25"
     inkscape:window-maximized="1"
     fit-margin-top="0"
     fit-margin-left="0"
     fit-margin-right="0"
     fit-margin-bottom="0" />
  <metadata
     id="metadata5">
    <rdf:RDF>
      <cc:Work
         rdf:about="">
        <dc:format>image/svg+xml</dc:format>
        <dc:type
           rdf:resource="http://purl.org/dc/dcmitype/StillImage" />
        <dc:title />
      </cc:Work>
    </rdf:RDF>
  </metadata>
  <g
     inkscape:label="Layer 1"
     inkscape:groupmode="layer"
     id="layer1"
     transform="translate(-47.776846,-192.02961)">
    <path
       style="fill:#ffffff;fill-opacity:1;stroke:#000000;stroke-width:5.6692915;stroke-miterlimit:4;stroke-dasharray:none;stroke-opacity:1"
       d="M 466.28711,0 V 3.0195312 C 458.74894,2.3008327 461.86112,15.574219 455.64062,15.574219 V 27.96875 c 4.72628,1.396924 3.29315,15.095703 10.64649,15.095703 v 5.244141 h -2.22461 v 5.24414 c -5.70988,-0.483861 -6.34904,12.871094 -10.32812,12.871094 v 78.500002 h -5.72071 v -2.54297 h -4.29101 v 17.48047 c 5.02263,-0.62065 2.9463,8.10351 7.15039,8.10351 v 71.66797 h -9.85157 v -3.49609 h -5.5625 v 18.11523 c 6.51822,0.5287 7.7124,17.79883 13.19141,17.79883 v 103.92578 c -5.80951,1.74056 -4.04518,21.13477 -10.85937,21.13477 v 51.01758 h -20.81836 v -55.9668 c 0,-6.84552 -5.54902,-12.39453 -12.39454,-12.39453 h -96.3496 c 25.59899,-20.68364 28.6228,-59.24006 12.76562,-82.07422 -25.94997,-37.36808 -60.84098,-67.19221 -107.63476,-86.44531 l 0.002,-25.52149 c 8.37566,-2.39501 14.51172,-10.09349 14.51172,-19.23828 0,-6.20863 -2.82618,-11.75554 -7.26172,-15.42773 2.35268,2.85539 3.76562,6.51326 3.76562,10.50195 0,9.12748 -7.3979,16.52734 -16.52539,16.52734 -9.12699,0 -16.52734,-7.39986 -16.52734,-16.52734 0,-3.98869 1.41487,-7.64656 3.76758,-10.50195 -4.43555,3.67264 -7.26367,9.2191 -7.26368,15.42773 0,9.14479 6.13757,16.84327 14.51368,19.23828 l 0.002,25.52149 c -46.79382,19.2531 -81.6848,49.07723 -107.634766,86.44531 -15.857178,22.83416 -12.832358,61.39058 12.767576,82.07422 H 12.394531 C 5.5490364,379.76758 0,385.31659 0,392.16211 v 55.9668 3.46484 88.2793 c 0,6.43566 2.1943057,11.65234 4.9003906,11.65234 H 512.85742 c 2.70607,0 4.89844,-5.21619 4.89844,-11.65234 v -91.74414 h -17.88477 v -51.01758 c -5.57628,-0.335 -6.55234,-21.13477 -10.85937,-21.13477 V 272.05078 c 5.75457,-0.5987 7.06455,-17.79883 13.18945,-17.79883 v -18.11523 h -5.5625 v 3.49609 h -9.85156 v -71.66797 c 4.29811,0.31756 1.74179,-8.10351 7.15039,-8.10351 v -17.48047 h -4.28906 v 2.54297 h -5.72266 V 66.423828 c -4.56966,-1.062462 -4.37235,-12.871094 -10.32812,-12.871094 v -5.246093 h -2.22461 v -5.242188 c 7.1219,0.258366 6.5411,-15.095703 10.64648,-15.095703 V 15.574219 C 475.41711,15.2833 479.45461,3.0195312 471.37305,3.0195312 V 0 Z"
       transform="matrix(0.26458333,0,0,0.26458333,48.526846,192.77961)"
       id="path819"
       inkscape:connector-curvature="0"
       sodipodi:nodetypes="cccccccccccccccccccccccccssccccscsssccccccssccsssscccccccccccccccccccccccccc" />
  </g>
</svg>
