<?xml version="1.0" encoding="UTF-8" standalone="no"?>
<svg id="svg2" xmlns:rdf="http://www.w3.org/1999/02/22-rdf-syntax-ns#" xmlns="http://www.w3.org/2000/svg" height="1160pt" width="1230pt" version="1.1" xmlns:cc="http://creativecommons.org/ns#" xmlns:dc="http://purl.org/dc/elements/1.1/" viewBox="0 0 1230 1160">
<path id="path4" d="m462.72 0h32.66c68.72 8.11 124.09 56.76 165.99 108.59 1.74 5.53 14.78 5.49 12.73 9.92-9.55-4.41-0.34 6.89-9.77-1.94-62.06-18.6-137.47-11.02-184.96 36.8-23.13 26.04-44.48 53.64-66.46 80.65 5.17-2.56 11.06-2.56 16.5-4.12 21.32-24.54 39.41-51.99 62.9-74.59 41.98-37.91 104.42-41.44 156.83-26.87-51.95-5.44-111.86 1.66-148.38 43.33-18.83 23.56-36.06 48.46-53.5 73.06 16.21 15.78 34.03 29.9 49.64 46.29-18.36-13.03-34.38-29.08-51.94-43.13-3.13 2.54-7.44 6.96-1.68 9.77 76.52 67.84 153.19 135.55 230 203.06 2.16 3 4.26-1.64 5.74-2.82 43.73-55.65 88.13-110.84 131.63-166.65 2.14-23.17-4.25-47.45-2.59-71.12 2.02-71.25 50.57-140.47 119.32-161.89 28.98-8.32 60.34-10.44 89.72-2.75 6.1 1.88 7.7 10.63 4.2 15.48-36.59 45.31-74.93 89.36-111.17 134.8 42.35 37.28 84.27 75.16 126.87 112.1 32.6-34.78 63.1-71.58 96.1-105.91-30.8 38.04-64.1 74.04-95.3 111.84-45.65-39.15-92.09-77.75-136.81-117.88 35.01-43.59 70.46-86.87 105.71-130.3 6-5.26-6.5-6.51-7.57-1.76-34.44 42.28-68.99 84.51-103.51 126.74-3.65 3.19-4.79 8.74 0.2 11.44 45.82 39.55 91.5 79.31 137.38 118.82 7.6 5.91 12.7-4.94 18-8.96-4 5.51-11.2 18.27-19 9.9-46.15-39.23-92.07-78.78-138.03-118.24-6.64-4.03-3.71-12.19 1.05-16.38 34.33-42.28 69.14-84.21 102.98-126.88-24.89-3.05-50.57-0.31-73.97 8.83-54.69 21.54-92.78 77.27-96.55 135.47-0.65-36.42 18.24-75.51 44.54-102.48 31.7-35.27 81.77-50.57 128.18-43.85 1.2-1.68 3.5-5.04 4.7-6.72-35.26-5.03-72.29 0.23-103.33 18.12-45.59 26.9-77.2 76.45-81.8 129.28-3.63 28.41 2.93 57 3.33 85.21-47.16 61.12-94.83 121.93-141.9 183.14-2.76 4.44-8.46 3.49-11.34-0.42-79.56-68.44-159.14-136.9-238.51-205.54-1.87-1.07-5.06-3.09-5.53 1.44-7.96 11.34-17.13 21.84-24.77 33.39 9.63-8.55 15.78-20.12 24.78-29.23 79.7 69.22 159 138.94 238.54 208.35 6.15 6.19 18.03 6.9 23.45-0.54 48.15-60.48 95.75-121.41 143.88-181.9 7.59-10.64 1.69-23.96 1.99-35.83-5.04-39.49-3.77-82.6 18.08-117.2-19.11 36.47-21.07 78.63-15.61 118.74-0.33 11.94 6.04 26.05-2.52 36.33-47.37 60.87-94.84 121.66-142.14 182.58-7.15 9.54-22.61 9.86-30.51 1.13-78.23-67.77-156.19-135.85-234.27-203.78-24.7 28.06-47.53 57.78-71.77 86.27-1.4 1.84-4.81 5.08-1.46 7.09 74.9 71.38 149.91 142.66 224.78 214.09 11.8 9.83 13.18 29.51 2.49 40.68-46.25 56.37-92.66 112.61-138.94 168.95-8.35 13.54-25.42 16.93-39.67 11.67-74.5-17.49-150.51 46.53-154.59 121.08 25.91-26.38 50.14-54.44 75.87-81.02 10.28-10.71 29.12-11.82 39.83-1.08 45.54 40.08 91.3 79.91 136.81 120.01 11.15 8.44 14.33 26.06 5.6 37.24-26.74 34.1-55.7 66.6-81.9 101 58.76-7.4 104.61-61.3 111.09-118.84 2.47-24.43 0.98-49.26-5.14-73.06-3.13-10.22-3.87-22.18 2.93-31.16 44.48-56.85 88.23-114.29 132.85-171.03 9.15-12.67 29.39-14.81 41.25-4.71 118.77 111.16 235.74 224.43 354.05 336 33-37.6 65.7-76.13 97-114.99-92.2-83.49-187.06-164.34-278.95-248.21 96.3 81.52 190.75 165.31 286.65 247.25-34 42.34-69.1 83.95-103.8 125.85-120.49-112.22-239.17-226.83-359.39-339.5-9.21-8.04-24.19-6.16-31.27 3.8-43.41 55.58-86.3 111.6-129.68 167.21-4.53 5.87-8.13 13.59-5.17 21.01 8.92 38.75 13.09 80.96-2.17 118.68-17.97 45.7-59.07 84.3-109.07 89.9-6.86-0.1-14.24 3.2-16.09 10.3 68.52-2.1 127.05-58 139.14-124.2 6.01-31.95 2.5-64.88-5.53-96.16-2.73-7.1 2.29-12.98 6.18-18.28 42.32-54.97 84.92-109.73 127.12-164.77 5.41-7.91 17.91-8.06 24.2-1.26 121.03 113.31 240.69 228.25 361.83 341.27 37.8-43.9 74.3-89.13 111-134.01-125-108.34-250.88-215.63-375.73-324.08-10.17-7.7-11.33-23.82-1.9-32.64 50.77-59.48 101.51-119.02 152.87-177.99 10.44-11.03 25.17-3.12 37.25-0.72 79.61 14.99 154.91-53.34 163.61-130.42 4.5-26.43-0.6-53.14 1.1-79.65 2.2 31.97 8 65.02 1.3 97.01-13.8 74.84-87.6 136.75-165.12 125.15-10.54 0.01-23.9-11.62-32.09-0.35-49.76 58.92-99.93 117.51-149.55 176.54-4.18 4.43-2.45 11.72 2.62 14.77 127.74 110.17 255.24 220.61 383.04 330.72-41.5 51.43-84.8 103.47-127.4 154.77-125.38-117.14-249.16-236.14-374.81-352.88-44.45 53.25-86.11 109.09-129.92 162.99-2.18 3.54-7.12 6.69-5.91 11.42 6.41 28.74 9.97 58.61 6.23 87.98-9.03 69.59-67.63 133.99-139.82 137.09-4.94 0.8-17.54-0.7-16.2 6.4 65.7 2.9 127.08-41.6 150.57-101.9 17.18-41.44 15.1-88 5.29-130.91 43.04-54.73 86.68-109.31 130.53-163.38 122.68 117.72 244.54 236.31 368.24 352.99 3.1 3.9 9 5.6 12 0.3 44.6-53.1 88.6-106.88 132.8-160.37 5.8-7.46-4.6-13.19-9.3-17.57-126.6-108.66-253.73-216.82-379.48-326.45 48.92-59.53 100.61-116.83 149.86-176.1 53.62 17.53 115.52 0 154.52-40.14 42.5-40.89 58.8-102.24 51.5-159.87 16.9 78.53-22.4 165.86-95 201.35-32.5 15.65-70.5 21.35-105.84 13.31-42.89 53.26-86.28 106.18-129.03 159.56 126.6 105.59 253.07 211.41 378.97 317.89 7.2 5.33 10.3 13.9 11.8 22.4v2.69c-1.3 11.96-10 20.93-17.4 29.75-41.6 50.95-83.3 101.85-125.4 152.55-10.9 13.6-33.3 14.3-45.5 2-118.35-110.8-233.72-224.89-350.61-337.11-34.69 43.56-70.03 86.6-105.1 129.85-3.06 3.21-1.16 7.77-0.69 11.59 7.9 44.97 5.5 93.17-15.27 134.47-27.36 57.9-85 101-149.68 105h-26.77c-15.09-3.3-36.25-0.9-43.8-17.6-5.35-14.9 8.27-25 16.38-35.2 30.78-36.9 62.75-72.8 92.8-110.21-36.78-35.36-75.45-69.09-113.82-102.72-30.79 31.86-60.93 64.38-91.52 96.46-3.79 2.91-4.64 8.47-2.09 12.47 31.21-33.63 62.06-67.79 94.46-100.18 17.17 14.31 34.22 29.16 49.94 45.09-17.29-13.16-33.05-28.24-49.87-41.94-36.07 39.48-72.53 78.62-109.27 117.43-10.21 11.5-32.49 7.4-36.43-8.1-5.33-50.91-9.94-106.83 17.53-152.65-17.65 38.1-23.18 81.15-16.53 122.64 11.89-6.88 4.02-21.01 4.93-31.77-3.67-76.5 49.32-151.87 122.85-173.61 27.47-7.26 56.91-10.22 84.6-2.42 45.87-54.33 91.94-108.59 137.07-163.53-72.97-72.06-147.34-142.67-220.65-214.37-3.89-4.84-9.15 5.31-2.94 6.99 71.82 69.14 143.55 138.41 215.53 207.36-24.8 30.56-49.5 61.55-75.94 90.71 23.02-30.5 47.94-59.57 71.13-89.91-72.59-68.91-145.39-137.86-218.28-206.42-10.94 9.59-20.35 23.85-31.34 34.62 13.76 10.6 19.87 31.64 7.56 45.76-30 35.52-60.99 70.26-91.79 105.09-9.45 11.52-28.1 10.24-37.34-0.84-51.74-51.87-103.76-103.46-156.02-154.8-4.02-4.11-8.58-8.09-10.73-13.57v-3.54c27.8-39.83 62.08-75.66 92.31-113.97 15.15-15.35 26.22 16.24 39.29 19.33 16.65-17.04 31.85-35.62 47.45-53.67-1.17-1.42-3.27-5.24-5.15-3.13-14.91 16.06-28.29 35.99-44.2 49.59 12.49-16.37 28.84-36.22 42.02-54.23-8.82-10.26-29.62-25.66-13.43-38.93 42.86-33.94 72.61-80.17 107.77-121.2 15.76-10.48 25.03 17.62 36.38 22.43 24.5-27.54 45.84-57.96 72.32-83.7 23.82-23.36 54.88-39.09 87.96-43.76m13.83 9.48c-41.33 1.04-78.6 24.53-104.56 55.51-27.76 34.97-54.9 70.44-82.59 105.47-4.49 9.21-8.96 18.46-13.2 27.79 36.48-43.2 70.95-88.26 108.11-130.94 21.43-21.47 50.11-41.7 80.54-42.62-35.23 5.04-64.82 28.56-86.54 55.62-74.34 93.45-149.62 186.15-225.99 277.93-13.24 14.37-36.58 9.67-47.44-5.1-17.02 21.59-34.18 44.16-50.79 65.74 41.29 40.74 83.23 81.78 127.88 119.14 16.31-21.19 33.73-41.97 48.91-63.76-16.37-9.11-22.29-32.31-9.31-46.73 67.33-81.39 135.54-162.37 206.58-240.4-66.93 83.55-136.35 165.24-203.1 248.95-9.62 15.42 5.26 29.57 16.96 37.89-19.59 25.38-39.19 50.81-59.14 75.91-49.56-41.17-96.7-85.72-143.64-130 21.06-26.38 42.25-53.19 63.91-78.78 11.15 8.85 25.97 26.24 41.63 13.64 27.05-29.69 52.19-61.15 78.47-91.53-35.51 21.09-54.51 60.62-85.43 86.83-16.1 6.4-24.23-16.49-36.34-20.64-25.47 31.02-52.26 61.18-77.33 92.45 54.12 51.85 105.93 106.18 160.92 157.08 29.36-32.68 58.09-66.57 86.96-99.94 16.07-14.04-18.56-22.78-18.63-33.79 15.28-18.69 31.35-36.77 46.64-55.44-0.88-4.04-2.33-7.95-3.82-11.8-16.88 21.19-33.91 42.28-50.92 63.38-1.45 2.11-4.59 5-2.64 7.75 7.94 8.05 18.21 14.25 25.22 22.88-26.57 34.02-54.98 66.99-83.86 99.13-25.09-24.24-50.61-48.24-74.86-73.25 25.22 19.92 49.24 41.55 73.89 62.25 22.69-28.57 45.21-57.7 66.93-87.03-9.97-9.31-29.63-19.4-18.76-35.76 77.04-94.68 153.56-189.8 230.75-284.35 46.79-56.99 132.74-67.76 197.02-42.92-46.07-52.57-108.67-103.09-182.43-100.56m533.65 53.51c-0.8 10.12 9.9-0.54 0 0m-2.8 1.11c-9.59 7 9.4 6.31 0 0m-734.28 46.01c-16.59 20.42-29.36 43.61-40.95 67.13 13.87-18.16 30-43.62 54.07-45.81-13.76 20.18-29.62 38.86-44.89 57.91-13.1 14.77-20.8 33.96-37.56 45.45-4.29 6.73-14.49 12.54-14.73 20.12 16.13-8.97 26.38-24.97 38.5-38.35 23.79-28.53 48.49-56.42 71.47-85.54-7.96-7.54-16.75-14.88-25.91-20.91m-57.52 90.45c-10.5 7.77-20.34 16.76-26.69 28.36-1.84-8.61-9.17 3.4-12.79 5.5 0.71 5.31 4.9 10.36 8.88 13.64 7.45-1.84-6.74-11 3.44-8.33 8.94-12.19 19.28-29.14 27.16-39.17m206.88 34.82c-3.67 0.83-7.51 2.16-9.74 5.42-35.21 42.43-70.35 84.92-105.73 127.19-4.33 3.65-5.36 11.89-2.26 15.9 37.66-51.11 82.95-97.19 120.05-148.98-0.58 0.11-1.74 0.35-2.32 0.47m-78.14 142.91c-2.56 1.38-4.73 4.82-1.67 6.97 74.39 70.24 147.76 141.56 221.58 212.41 8.93 5.98 14.03 18.31 5.18 26.85-45.56 54.69-91.39 109.18-137.24 163.64-4.32 5.91-11.02 13.67-19.18 10.93-24.23-7.95-50.42-5.97-74.84 0.07-67.77 17.88-116.67 88.42-110.83 158 6.4-4.84 11.7-11.22 10-19.88 2.68-76.46 75.78-143.97 152.97-134.66 13.41 0.81 28.9 10.47 40.51-0.84 48.45-57.85 96.63-115.95 145-173.87 7.97-8.86 6.78-23.79-2.57-31.27-76.38-72.41-152.18-147.69-228.91-218.35m-4.6 478.13c-5.74 0.48-9.21 5.71-13.06 9.3-26.25 28.19-52.25 56.62-78.51 84.79 0.03 3.61-2.51 14 1.8 14.35 26.73-29.17 54.02-57.86 81.2-86.6 4.79-4.59 11.24-14.37 18.44-8.06 44.58 39.1 88.73 78.73 133.16 118.02 2.9 2.53 6.92 6.16 3.23 9.75-31.04 37.53-62.5 74.83-93.8 112.13-2.73 3.6 3.75 1.9 5.55 1.1 9.1-9.7 16.46-21.1 26.29-30.2-7.03 10.8-15.74 20.4-23.76 30.5 3.68 1.8 10.6 1.4 13.2-2.8 27.57-33.5 54.88-67.2 82.32-100.8 7.3-7.1 7.43-20.7-0.69-27.14-45.72-39.88-91.6-79.58-137.34-119.42-4.69-5.02-11.46-6.54-18.03-4.92m-103.39 106.53c-6.74 5.85-9.87 13.79-7.56 22.67 9.2-3.27 11.88-14.95 7.56-22.67m-35.44 26.11c1.87 13.54-1.34 33.54 15.84 37.44 14.4 3.2 23.29-11.3 31.27-20.6-7.02-7.22-11.79 5.8-17.2 8.8-5.83 9.9-21.41 4.7-21.57-6.1-2.36-6.9 2.41-19.66-8.34-19.54m183.14 131.44c-1.54 1.2-4.49 3.3-3.83 5.2 3.74 8 15.82-11.2 3.83-5.2m9.13 0.9c-2.31 1.4-8.11 6.6-2.53 7.2 9.2 4.6 18.86-14.8 2.53-7.2m-17.8 8.8c-7.31 6.5 8.63 4.2 0 0m8.99 0.9c-5.88 7.3 10.76 8.1 9.34 0.9-3.11-0.6-6.2-1-9.34-0.9z"/>
</svg>
